<svg width="360" height="646" viewBox="0 0 360 646" fill="none" xmlns="http://www.w3.org/2000/svg">
<path opacity="0.15" d="M180 646C358.388 646 503 501.388 503 323C503 144.612 358.388 0 180 0C1.612 0 -143 144.612 -143 323C-143 501.388 1.612 646 180 646Z" fill="#D0D0EF"/>
<path opacity="0.2" d="M180 535C297.084 535 392 440.084 392 323C392 205.916 297.084 111 180 111C62.9156 111 -32.0001 205.916 -32.0001 323C-32.0001 440.084 62.9156 535 180 535Z" fill="#D0D0EF"/>
<path opacity="0.25" d="M180 461C256.215 461 318 399.215 318 323C318 246.785 256.215 185 180 185C103.785 185 42 246.785 42 323C42 399.215 103.785 461 180 461Z" fill="#D0D0EF"/>
<path d="M179.925 379.45C211.353 379.45 236.831 353.972 236.831 322.544C236.831 291.116 211.353 265.638 179.925 265.638C148.497 265.638 123.02 291.116 123.02 322.544C123.02 353.972 148.497 379.45 179.925 379.45Z" fill="#2A2A72"/>
<path d="M179.925 383.088C146.546 383.088 119.381 355.928 119.381 322.544C119.381 289.16 146.541 262 179.925 262C213.309 262 240.469 289.16 240.469 322.544C240.469 355.928 213.309 383.088 179.925 383.088ZM179.925 269.277C150.554 269.277 126.66 293.173 126.66 322.542C126.66 351.911 150.556 375.806 179.925 375.806C209.294 375.806 233.19 351.912 233.19 322.542C233.19 293.171 209.298 269.277 179.925 269.277Z" fill="white"/>
<path d="M186.22 314.457L185.084 312.287C184.591 311.345 183.849 310.555 182.94 310.005C182.031 309.454 180.988 309.163 179.925 309.163C178.862 309.163 177.819 309.454 176.909 310.005C176 310.555 175.259 311.345 174.766 312.287L173.633 314.455H168.14L179.633 294.551C179.719 294.401 179.844 294.277 179.994 294.19C180.143 294.104 180.313 294.058 180.486 294.058C180.659 294.058 180.829 294.104 180.979 294.19C181.129 294.277 181.253 294.401 181.34 294.551L192.832 314.456L186.22 314.457Z" fill="white"/>
<path d="M180.486 300.35L184.005 306.445C181.906 305.449 179.515 305.254 177.282 305.898L180.486 300.35ZM180.486 290.421C179.674 290.416 178.875 290.628 178.171 291.034C177.467 291.44 176.885 292.026 176.482 292.732L164.732 313.084L161.838 318.096H175.838L177.99 313.974C178.175 313.621 178.453 313.324 178.794 313.118C179.135 312.911 179.526 312.801 179.925 312.801C180.324 312.801 180.715 312.911 181.056 313.117C181.397 313.324 181.675 313.62 181.859 313.973L184.017 318.096H199.14L196.247 313.084L184.491 292.732C184.088 292.027 183.505 291.441 182.802 291.034C182.098 290.628 181.299 290.416 180.486 290.421Z" fill="white"/>
<path d="M156.986 336.734C156.813 336.734 156.643 336.688 156.494 336.601C156.344 336.515 156.219 336.39 156.133 336.241C156.047 336.091 156.001 335.921 156.001 335.748C156.001 335.575 156.046 335.405 156.133 335.255L161.418 326.101H167.553L167.327 326.533C166.863 327.42 166.636 328.412 166.668 329.412C166.7 330.413 166.989 331.388 167.507 332.245C168.026 333.101 168.757 333.809 169.629 334.3C170.501 334.791 171.485 335.049 172.486 335.049H188C189.044 335.05 190.068 334.769 190.966 334.238C191.864 333.706 192.602 332.943 193.104 332.028C193.606 331.114 193.852 330.081 193.818 329.038C193.784 327.995 193.47 326.981 192.909 326.101H199.554L204.84 335.255C204.926 335.405 204.972 335.574 204.972 335.747C204.972 335.919 204.927 336.089 204.841 336.238C204.756 336.388 204.632 336.512 204.483 336.599C204.334 336.686 204.165 336.733 203.993 336.734H156.986Z" fill="white"/>
<path d="M197.453 329.738L199.392 333.095H196.633C197.109 332.036 197.385 330.898 197.446 329.738H197.453ZM163.107 330.448C163.226 331.361 163.478 332.251 163.854 333.092H161.581L163.107 330.448ZM201.655 322.459H178.483L176.089 327.041H188C188.571 327.054 189.113 327.29 189.512 327.698C189.91 328.106 190.133 328.654 190.133 329.224C190.133 329.794 189.91 330.342 189.512 330.75C189.113 331.158 188.571 331.394 188 331.407H172.486C172.11 331.407 171.741 331.31 171.414 331.126C171.087 330.942 170.813 330.676 170.618 330.355C170.423 330.033 170.315 329.667 170.303 329.292C170.291 328.916 170.377 328.544 170.551 328.211L173.557 322.456H159.318L152.977 333.436C151.202 336.514 153.422 340.372 156.981 340.372H203.993C207.552 340.372 209.776 336.518 207.997 333.436L201.661 322.462L201.655 322.459Z" fill="white"/>
</svg>
