<?xml version="1.0" encoding="utf-8"?>
<!-- Generator: Adobe Illustrator 24.1.0, SVG Export Plug-In . SVG Version: 6.00 Build 0)  -->
<svg version="1.1" id="Layer_1" xmlns="http://www.w3.org/2000/svg" xmlns:xlink="http://www.w3.org/1999/xlink" x="0px" y="0px"
	 viewBox="0 0 166.4 166.4" style="enable-background:new 0 0 166.4 166.4;" xml:space="preserve">
<style type="text/css">
	.st0{fill:#2A2A72;stroke:#FFFFFF;stroke-width:10;stroke-miterlimit:10;}
	.st1{fill:#FFFFFF;}
	.st2{fill:none;stroke:#2A2A72;stroke-width:6;stroke-linecap:round;stroke-linejoin:round;}
	.st3{fill:#2A2A72;}
</style>
<g id="Logo_Allgram">
	<g id="Layer_1-2">
		<g id="Logo_icon">
			<circle class="st0" cx="83.2" cy="83.2" r="78.2"/>
			<path class="st1" d="M51.7,102.7c-0.5,0-0.9-0.2-1.2-0.7c-0.3-0.4-0.3-0.9,0-1.4l32.3-55.9C83,44.3,83.5,44,84,44
				s0.9,0.2,1.2,0.7l32.3,55.9c0.4,0.7,0.1,1.5-0.5,1.8c-0.2,0.1-0.4,0.2-0.6,0.2L51.7,102.7z"/>
			<path class="st1" d="M84,52.7l13,22.5l13,22.5H58l13-22.5L84,52.7 M84,39.1c-2.3,0-4.4,1.2-5.5,3.2l-16.2,28l-16.1,28
				c-1.8,3-0.7,6.9,2.3,8.7c1,0.6,2.1,0.9,3.2,0.9h64.6c3.5,0,6.4-2.8,6.4-6.3c0-1.1-0.3-2.2-0.9-3.2l-16.2-28l-16.1-28
				C88.4,40.3,86.3,39,84,39.1z"/>
			<polyline class="st2" points="86.5,79.1 83.2,72.8 73,92.4 94.3,92.4 			"/>
			<polygon class="st3" points="117.6,77.1 49.6,77.1 49.6,83.1 117.6,83.1 			"/>
		</g>
	</g>
</g>
</svg>
